<svg xmlns="http://www.w3.org/2000/svg" width="103" height="100" viewBox="0 0 103 100" fill="none">
  <style>
    @media (prefers-color-scheme: dark) {
      .favicon-color {
        stroke: hsla(0, 79%, 98%, 1);
      }
    }
  </style>
  <path class="favicon-color" d="M87.5 20L80.1667 25.5C78.4357 26.7982 76.3304 27.5 74.1667 27.5H57.375C54.3873 27.5 51.656 29.188 50.3198 31.8603C48.671 35.158 49.5265 39.1581 52.3801 41.4928L62.3799 49.6745C70.2496 56.1133 74.3222 66.1002 73.1993 76.2062L72.968 78.2883C72.6569 81.0883 72.0508 83.8475 71.1599 86.5202L70 90" stroke="#090101" stroke-width="10"/>
  <path class="favicon-color" d="M2.5 42.5L18.6905 39.8016C25.4587 38.6735 31.3264 44.5413 30.1984 51.3095L29.5259 55.3449C28.3217 62.5698 31.9705 69.7353 38.5218 73.0109C43.7677 75.6338 46.4879 81.5483 45.0655 87.2382L42.5 97.5" stroke="#090101" stroke-width="10"/>
  <circle class="favicon-color" cx="50" cy="50" r="45" stroke="#090101" stroke-width="10"/>
  <path d="M80.0098 3C92.1651 3.00015 102.019 12.8544 102.019 25.0098C102.018 40.782 85.9234 50.273 81.2607 52.6914C80.4658 53.1036 79.5527 53.1037 78.7578 52.6914C74.0952 50.273 58.0002 40.782 58 25.0098C58 12.8543 67.8543 3 80.0098 3ZM80.0098 15.5771C74.8003 15.5771 70.5771 19.8003 70.5771 25.0098C70.5773 30.2191 74.8004 34.4424 80.0098 34.4424C85.219 34.4422 89.4422 30.219 89.4424 25.0098C89.4424 19.8004 85.2191 15.5774 80.0098 15.5771Z" fill="#EB5656"/>
</svg>
